<svg width="42" height="50" viewBox="0 0 42 50" fill="none" xmlns="http://www.w3.org/2000/svg">
<path d="M32.2225 28.8177C32.0392 28.8233 31.8616 28.8827 31.7117 28.9882C28.5713 31.1868 24.8335 32.369 21 32.3774C17.1679 32.3751 13.4296 31.1986 10.2865 29.0065C10.1459 28.9084 9.98119 28.8508 9.81016 28.8399C9.63913 28.8289 9.46836 28.8649 9.31641 28.9442C9.16447 29.0235 9.03715 29.1429 8.94831 29.2895C8.85947 29.436 8.8125 29.6041 8.8125 29.7755V48.315C8.8125 48.4751 8.85352 48.6326 8.93166 48.7724C9.0098 48.9122 9.12245 49.0296 9.25887 49.1135C9.39529 49.1974 9.55092 49.245 9.71094 49.2517C9.87096 49.2584 10.03 49.224 10.173 49.1518L20.9103 43.7373L31.8343 49.1554C31.9773 49.226 32.1359 49.2591 32.2952 49.2514C32.4545 49.2437 32.6091 49.1955 32.7446 49.1114C32.8801 49.0272 32.9918 48.91 33.0693 48.7706C33.1468 48.6313 33.1875 48.4744 33.1875 48.315V29.7554C33.1875 29.63 33.1624 29.5057 33.1136 29.3901C33.0647 29.2746 32.9932 29.17 32.9032 29.0826C32.8133 28.9952 32.7066 28.9267 32.5897 28.8813C32.4728 28.8358 32.3479 28.814 32.2225 28.8177Z" fill="#D7AA53"/>
<path d="M20.9991 41.2532C32.3789 41.2532 41.6222 32.0099 41.6222 20.6301C41.6222 9.25025 32.3789 0 20.9991 0C9.61925 0 0.375916 9.25025 0.375916 20.6301C0.375916 32.0099 9.61925 41.2532 20.9991 41.2532Z" fill="#C28A1D"/>
<path d="M20.9991 37.5023C30.3078 37.5023 37.8782 29.9388 37.8782 20.6301C37.8782 11.3213 30.3078 3.75092 20.9991 3.75092C11.6903 3.75092 4.12683 11.3213 4.12683 20.6301C4.12683 29.9388 11.6903 37.5023 20.9991 37.5023Z" fill="#DABC82"/>
<path d="M18.8574 19.7985H20.3613C20.8431 19.7985 21.2402 19.7171 21.5527 19.5543C21.8652 19.3851 22.0964 19.1507 22.2461 18.8512C22.4023 18.5452 22.4805 18.1904 22.4805 17.7867C22.4805 17.4222 22.4089 17.0999 22.2656 16.8199C22.1289 16.5335 21.9173 16.3121 21.6309 16.1559C21.3444 15.9931 20.9831 15.9117 20.5469 15.9117C20.2018 15.9117 19.8828 15.9801 19.5898 16.1168C19.2969 16.2535 19.0625 16.4456 18.8867 16.693C18.7109 16.9404 18.623 17.2399 18.623 17.5914H15.8008C15.8008 16.8102 16.0091 16.1298 16.4258 15.5504C16.849 14.971 17.4154 14.5185 18.125 14.193C18.8346 13.8675 19.6159 13.7047 20.4688 13.7047C21.4323 13.7047 22.2754 13.861 22.998 14.1735C23.7207 14.4795 24.2839 14.9319 24.6875 15.5309C25.0911 16.1298 25.293 16.872 25.293 17.7574C25.293 18.2067 25.1888 18.6429 24.9805 19.066C24.7721 19.4827 24.4727 19.8603 24.082 20.1989C23.6979 20.5309 23.2292 20.7978 22.6758 20.9996C22.1224 21.1949 21.5007 21.2926 20.8105 21.2926H18.8574V19.7985ZM18.8574 21.9371V20.4821H20.8105C21.5853 20.4821 22.2656 20.5699 22.8516 20.7457C23.4375 20.9215 23.929 21.1754 24.3262 21.5074C24.7233 21.833 25.0228 22.2203 25.2246 22.6696C25.4264 23.1123 25.5273 23.6038 25.5273 24.1442C25.5273 24.8082 25.4004 25.4007 25.1465 25.9215C24.8926 26.4358 24.5345 26.872 24.0723 27.2301C23.6165 27.5882 23.0827 27.8616 22.4707 28.0504C21.8587 28.2327 21.1914 28.3239 20.4688 28.3239C19.8698 28.3239 19.2806 28.2425 18.7012 28.0797C18.1283 27.9104 17.6074 27.6598 17.1387 27.3278C16.6764 26.9892 16.3053 26.566 16.0254 26.0582C15.752 25.5439 15.6152 24.9352 15.6152 24.2321H18.4375C18.4375 24.5966 18.5286 24.9222 18.7109 25.2086C18.8932 25.4951 19.1439 25.7197 19.4629 25.8824C19.7884 26.0452 20.1497 26.1266 20.5469 26.1266C20.9961 26.1266 21.3802 26.0452 21.6992 25.8824C22.0247 25.7132 22.2721 25.4788 22.4414 25.1793C22.6172 24.8733 22.7051 24.5185 22.7051 24.1149C22.7051 23.594 22.6107 23.1774 22.4219 22.8649C22.2331 22.5459 21.9629 22.3115 21.6113 22.1617C21.2598 22.012 20.8431 21.9371 20.3613 21.9371H18.8574Z" fill="#AE7911"/>
</svg>
