<?xml version="1.0" encoding="UTF-8"?><svg id="uuid-5d508f42-a889-4000-9c8b-862a0d9ca16f" xmlns="http://www.w3.org/2000/svg" viewBox="0 0 163.22 35"><path d="m12.38,25.07h9.9c.14,0,.28-.01.41-.03h0c1.04-.17,1.86-1,2.03-2.04h0c.02-.13.03-.27.03-.41v-9.9c0-.14-.01-.28-.03-.41h0c-.17-1.04-.99-1.86-2.03-2.03h0c-.13-.02-.27-.03-.41-.03h-9.9c-.14,0-.28.01-.41.03h0c-1.04.17-1.86,1-2.03,2.03h0c-.02.13-.03.27-.03.41v2.48h9.34c.31,0,.57.25.57.57v3.82c0,.31-.25.57-.57.57h-9.34v2.48c0,.14.01.28.03.41h0c.17,1.04.99,1.86,2.03,2.03h0c.13.02.27.03.41.03Z" style="fill:#40abdf;"/><path d="m34.66,12.69v-2.48h0v-3.42c0-.53-.06-1.04-.18-1.53-.57-2.35-2.42-4.2-4.77-4.77-.49-.12-1-.18-1.53-.18H6.48c-.53,0-1.04.06-1.53.18C2.6,1.07.75,2.92.18,5.27c-.12.49-.18,1-.18,1.53v21.69c0,.53.06,1.04.18,1.53H.18c.57,2.35,2.42,4.2,4.77,4.77.49.12,1,.18,1.53.18h21.69c.53,0,1.04-.06,1.53-.18,2.35-.57,4.2-2.42,4.77-4.77h0c.12-.49.18-1.01.18-1.53v-3.42s0,0,0,0v-2.47h-2.47s0,0,0,0c-.33,0-.65.07-.93.18-.9.37-1.54,1.26-1.54,2.29v2.48c0,1.32-1.04,2.41-2.35,2.47-.04,0-.08,0-.13,0H7.43s-.08,0-.13,0c-1.31-.07-2.35-1.15-2.35-2.47V7.74c0-1.37,1.11-2.48,2.48-2.48h19.8c1.37,0,2.47,1.11,2.47,2.48v2.48c0,1.04.64,1.92,1.54,2.29.29.12.6.18.93.18h0s2.48,0,2.48,0Z" style="fill:#40abdf;"/><path d="m55.07,28.42c-2.98,0-5.48-1-7.43-2.98-1.94-1.98-2.93-4.46-2.93-7.37s.98-5.42,2.93-7.38c1.94-1.97,4.44-2.97,7.43-2.97,1.79,0,3.47.43,4.99,1.27,1.44.8,2.6,1.88,3.44,3.22l-3.05,1.77c-.51-.85-1.23-1.53-2.12-2.02-.96-.53-2.06-.8-3.25-.8-2.04,0-3.7.65-4.95,1.93-1.25,1.28-1.89,2.96-1.89,4.99s.64,3.68,1.89,4.96c1.25,1.28,2.92,1.93,4.95,1.93,1.19,0,2.29-.27,3.27-.8.9-.49,1.61-1.16,2.11-1.99l3.05,1.77c-.84,1.34-1.99,2.42-3.43,3.22-1.51.84-3.2,1.26-5.01,1.26Z" style="fill:#1a1a1a;"/><path d="m72.82,28.42c-1.86,0-3.48-.72-4.82-2.15-1.34-1.44-2.02-3.22-2.02-5.3s.68-3.86,2.02-5.3c1.34-1.43,2.96-2.15,4.82-2.15,1.95,0,3.49.69,4.56,2.04l.42.52v-2.15h3.29v14.48h-3.29v-2.56l-.42.52c-1.07,1.35-2.61,2.03-4.56,2.03Zm.7-11.78c-1.22,0-2.25.41-3.05,1.22-.8.81-1.2,1.85-1.2,3.12s.4,2.31,1.2,3.12c.8.81,1.82,1.22,3.05,1.22s2.25-.41,3.06-1.22c.81-.81,1.22-1.86,1.22-3.12s-.41-2.31-1.22-3.12c-.81-.81-1.84-1.22-3.06-1.22Z" style="fill:#1a1a1a;"/><path d="m83.56,28.42v-14.48h3.29v2.59s.57-1.28,2.08-2.21c.69-.42,1.48-.63,2.34-.66v3.69c-.13,0-.26-.01-.38-.01-.94,0-1.81.26-2.58.78-.97.64-1.46,1.72-1.46,3.19v7.13h-3.29Z" style="fill:#1a1a1a;"/><path d="m118.06,28.42c-2.08,0-3.86-.72-5.29-2.15-1.43-1.43-2.16-3.21-2.16-5.29s.73-3.86,2.16-5.29c1.43-1.43,3.21-2.16,5.29-2.16s3.86.73,5.31,2.16c1.44,1.43,2.17,3.21,2.17,5.29s-.73,3.86-2.17,5.29c-1.44,1.43-3.22,2.16-5.31,2.16Zm0-11.69c-1.18,0-2.18.41-2.97,1.2-.79.79-1.19,1.82-1.19,3.04s.4,2.25,1.19,3.04c.79.8,1.79,1.2,2.97,1.2s2.19-.4,2.99-1.2c.8-.8,1.2-1.82,1.2-3.04s-.4-2.25-1.2-3.04c-.8-.8-1.8-1.2-2.99-1.2Z" style="fill:#1a1a1a;"/><path d="m108.14,13.95h-3.31v2.35l-.43-.58c-1.11-1.48-2.62-2.19-4.63-2.19s-3.76.74-5.16,2.19c-1.39,1.45-2.1,3.23-2.1,5.28s.7,3.86,2.09,5.3c1.39,1.44,3.12,2.17,5.17,2.17s3.52-.72,4.63-2.19l.43-.58s0,1.55,0,1.76v.04c0,2.49-2.01,4.17-4.5,4.17-1.4,0-2.65-.64-3.47-1.64h-3.8c1.14,2.9,3.97,4.95,7.27,4.95,4.32,0,7.82-3.16,7.82-7.48v-.04h0c0-.61,0-13.5,0-13.5Zm-4.58,10.19c-.84.82-1.91,1.23-3.2,1.23s-2.36-.41-3.19-1.23c-.84-.82-1.26-1.87-1.26-3.14s.42-2.29,1.26-3.11c.84-.82,1.91-1.23,3.19-1.23s2.36.41,3.2,1.23c.84.82,1.26,1.86,1.26,3.11s-.42,2.32-1.26,3.14Z" style="fill:#1a1a1a;"/><polygon points="128.01 28.42 128.01 10.7 138.13 10.7 138.13 13.53 131.49 13.53 131.49 18.17 139.79 18.17 138.12 21 131.49 21 131.49 25.59 138.13 25.59 138.13 28.42 128.01 28.42" style="fill:#1a1a1a;"/><polygon points="139.36 28.42 139.36 25.59 147.28 13.53 139.36 13.53 139.36 10.7 151.27 10.7 151.27 13.53 143.32 25.59 151.27 25.59 151.27 28.42 139.36 28.42" style="fill:#1a1a1a;"/><circle cx="157.99" cy="5.07" r="4.06" style="fill:none; stroke:#1a1a1a; stroke-miterlimit:10; stroke-width:.75px;"/><path d="m156.74,3.06h1.46c.2,0,.38.03.55.1.16.06.31.15.42.26.12.11.21.25.27.4.06.16.1.32.1.51,0,.13-.02.26-.07.38-.04.12-.11.22-.19.32-.08.1-.17.18-.27.25s-.21.13-.33.17v.04s1.07,1.54,1.07,1.54v.04h-.87l-1.04-1.51h-.35v1.51h-.76V3.06Zm1.46,1.81c.17,0,.31-.05.42-.16.11-.1.17-.24.17-.4,0-.07-.01-.14-.04-.21-.02-.07-.06-.13-.11-.18s-.11-.09-.18-.13c-.07-.03-.16-.05-.25-.05h-.71v1.12h.7Z"/></svg>