<?xml version="1.0" encoding="UTF-8"?><svg id="uuid-41caa768-4764-47ec-a3c3-f1949fd0cd22" xmlns="http://www.w3.org/2000/svg" viewBox="0 0 629.13 144.15"><g id="uuid-92d76f0f-5806-42b1-a5eb-ca89930c7b13"><g><g><path d="m51.48,102.96h41.18c.58,0,1.15-.05,1.7-.14h0c4.33-.72,7.75-4.14,8.46-8.47h0c.09-.55.14-1.12.14-1.7v-41.18c0-.58-.05-1.15-.14-1.7h0c-.71-4.32-4.13-7.74-8.46-8.45h0c-.55-.1-1.12-.14-1.7-.14h-41.18c-.58,0-1.15.05-1.7.14h0c-4.33.72-7.75,4.14-8.46,8.46h0c-.09.55-.14,1.12-.14,1.7v10.3h38.83c1.3,0,2.35,1.05,2.35,2.35v15.89c0,1.3-1.05,2.35-2.35,2.35h-38.83v10.3c0,.58.05,1.15.14,1.7h0c.71,4.33,4.13,7.75,8.46,8.46h0c.55.1,1.12.14,1.7.14Z" style="fill:#fff;"/><path d="m144.14,51.48v-10.3h0v-14.21c0-2.2-.26-4.33-.77-6.38-2.36-9.77-10.05-17.47-19.83-19.83-2.04-.51-4.18-.77-6.37-.77H26.97c-2.2,0-4.33.26-6.37.77C10.82,3.13,3.13,10.82.77,20.6c-.51,2.05-.77,4.17-.77,6.38v90.21c0,2.19.26,4.33.77,6.37h0c2.36,9.78,10.05,17.47,19.83,19.83,2.05.51,4.17.77,6.37.77h90.21c2.19,0,4.33-.26,6.37-.77,9.77-2.36,17.47-10.04,19.83-19.82h0c.51-2.05.77-4.18.77-6.38v-14.22s0-.02,0-.04v-10.26h-10.28s-.01,0-.02,0c-1.37,0-2.69.27-3.89.77-3.76,1.52-6.41,5.22-6.41,9.53v10.3c0,5.5-4.33,10.01-9.76,10.29-.18,0-.35,0-.53,0H30.89c-.18,0-.35,0-.53,0-5.44-.28-9.77-4.79-9.77-10.29V30.89c0-5.69,4.61-10.3,10.3-10.3h82.36c5.68,0,10.29,4.61,10.29,10.3v10.3c0,4.31,2.65,8,6.41,9.52,1.2.5,2.52.77,3.89.77h0s10.3,0,10.3,0Z" style="fill:#fff;"/></g><g><path d="m229.06,116.89c-12.41,0-22.8-4.17-30.88-12.41-8.08-8.23-12.18-18.54-12.18-30.65s4.1-22.53,12.18-30.71c8.09-8.2,18.48-12.36,30.88-12.36,7.47,0,14.45,1.77,20.77,5.27,6,3.31,10.81,7.81,14.3,13.39l-12.7,7.37c-2.14-3.53-5.11-6.36-8.83-8.42-4-2.2-8.55-3.32-13.54-3.32-8.47,0-15.4,2.7-20.59,8.03-5.2,5.33-7.85,12.31-7.85,20.76s2.64,15.3,7.85,20.63c5.2,5.34,12.12,8.04,20.59,8.04,4.96,0,9.53-1.12,13.59-3.33,3.75-2.04,6.7-4.83,8.78-8.29l12.7,7.36c-3.48,5.55-8.27,10.06-14.25,13.39-6.28,3.49-13.29,5.25-20.82,5.25Z" style="fill:#fff;"/><path d="m302.85,116.89c-7.74,0-14.49-3.01-20.04-8.94-5.56-5.97-8.39-13.38-8.39-22.02s2.82-16.06,8.39-22.02c5.56-5.94,12.3-8.95,20.04-8.95,8.12,0,14.5,2.85,18.97,8.47l1.73,2.17v-8.95h13.67v60.24h-13.67v-10.63l-1.73,2.17c-4.47,5.62-10.85,8.46-18.97,8.46Zm2.91-48.99c-5.08,0-9.34,1.71-12.67,5.07-3.32,3.35-5,7.71-5,12.96s1.68,9.6,5,12.96c3.33,3.36,7.59,5.07,12.67,5.07s9.36-1.7,12.72-5.06c3.36-3.36,5.06-7.72,5.06-12.96s-1.7-9.6-5.06-12.96c-3.36-3.36-7.64-5.06-12.72-5.06Z" style="fill:#fff;"/><path d="m347.52,116.89v-60.24h13.67v10.76s2.36-5.34,8.65-9.2c2.86-1.76,6.17-2.61,9.73-2.75v15.36c-.54-.04-1.07-.06-1.6-.06-3.91,0-7.52,1.09-10.72,3.23-4.02,2.67-6.06,7.14-6.06,13.26v29.63h-13.67Z" style="fill:#fff;"/><path d="m491.01,116.89c-8.64,0-16.04-3.02-21.99-8.96-5.95-5.95-8.97-13.36-8.97-22s3.02-16.06,8.97-22c5.96-5.96,13.35-8.98,21.99-8.98s16.07,3.02,22.06,8.98c5.99,5.95,9.03,13.35,9.03,22s-3.04,16.04-9.03,22c-5.99,5.95-13.41,8.96-22.06,8.96Zm0-48.63c-4.93,0-9.08,1.69-12.36,5.01-3.28,3.3-4.94,7.56-4.94,12.66s1.66,9.34,4.94,12.66c3.28,3.32,7.44,5.01,12.35,5.01s9.09-1.68,12.42-5c3.32-3.32,5-7.58,5-12.66s-1.68-9.36-5-12.66c-3.32-3.32-7.5-5-12.42-5Z" style="fill:#fff;"/><path d="m449.75,56.72h-13.79v9.77l-1.8-2.41c-4.6-6.14-10.9-9.13-19.24-9.13s-15.65,3.07-21.45,9.1c-5.8,6.05-8.74,13.44-8.74,21.97s2.92,16.04,8.67,22.04c5.76,6,12.99,9.04,21.51,9.04s14.64-2.98,19.24-9.13l1.8-2.41s0,6.45-.02,7.32v.15c0,10.34-8.36,17.33-18.7,17.33-5.81,0-11.01-2.65-14.44-6.82h-15.82c4.73,12.06,16.5,20.6,30.25,20.6,17.95,0,32.51-13.16,32.51-31.11v-.15h0c0-2.55,0-56.17,0-56.17Zm-19.04,42.36c-3.48,3.39-7.95,5.11-13.29,5.11s-9.8-1.72-13.28-5.11c-3.49-3.39-5.26-7.78-5.26-13.06s1.77-9.54,5.26-12.94c3.48-3.39,7.94-5.1,13.28-5.1s9.81,1.71,13.29,5.1c3.48,3.4,5.25,7.75,5.25,12.94s-1.77,9.67-5.25,13.06Z" style="fill:#fff;"/><g><polygon points="532.4 116.89 532.4 43.18 574.5 43.18 574.5 54.96 546.89 54.96 546.89 74.25 581.41 74.25 574.47 86.03 546.89 86.03 546.89 105.11 574.5 105.11 574.5 116.89 532.4 116.89" style="fill:#fff;"/><polygon points="579.62 116.89 579.62 105.11 612.56 54.95 579.62 54.95 579.62 43.18 629.13 43.18 629.13 54.96 596.06 105.11 629.13 105.11 629.13 116.89 579.62 116.89" style="fill:#fff;"/></g></g></g></g></svg>