<svg width="42" height="50" viewBox="0 0 42 50" fill="none" xmlns="http://www.w3.org/2000/svg">
<path d="M32.2225 28.8177C32.0392 28.8233 31.8616 28.8827 31.7117 28.9882C28.5713 31.1868 24.8335 32.369 21 32.3774C17.1679 32.3751 13.4296 31.1986 10.2865 29.0065C10.1459 28.9084 9.98119 28.8508 9.81016 28.8399C9.63913 28.8289 9.46836 28.8649 9.31641 28.9442C9.16447 29.0235 9.03715 29.1429 8.94831 29.2895C8.85947 29.436 8.8125 29.6041 8.8125 29.7755V48.315C8.8125 48.4751 8.85352 48.6326 8.93166 48.7724C9.0098 48.9122 9.12245 49.0296 9.25887 49.1135C9.39529 49.1974 9.55092 49.245 9.71094 49.2517C9.87096 49.2584 10.03 49.224 10.173 49.1518L20.9103 43.7373L31.8343 49.1554C31.9773 49.226 32.1359 49.2591 32.2952 49.2514C32.4545 49.2437 32.6091 49.1955 32.7446 49.1114C32.8801 49.0272 32.9918 48.91 33.0693 48.7706C33.1468 48.6313 33.1875 48.4744 33.1875 48.315V29.7554C33.1875 29.63 33.1624 29.5057 33.1136 29.3901C33.0647 29.2746 32.9932 29.17 32.9032 29.0826C32.8133 28.9952 32.7066 28.9267 32.5897 28.8813C32.4728 28.8358 32.3479 28.814 32.2225 28.8177Z" fill="#EF8950"/>
<path d="M20.9991 41.2532C32.3789 41.2532 41.6222 32.0099 41.6222 20.6301C41.6222 9.25025 32.3789 0 20.9991 0C9.61925 0 0.375916 9.25025 0.375916 20.6301C0.375916 32.0099 9.61925 41.2532 20.9991 41.2532Z" fill="#FFC700"/>
<path d="M20.9991 37.5023C30.3078 37.5023 37.8782 29.9388 37.8782 20.6301C37.8782 11.3213 30.3078 3.75092 20.9991 3.75092C11.6903 3.75092 4.12683 11.3213 4.12683 20.6301C4.12683 29.9388 11.6903 37.5023 20.9991 37.5023Z" fill="#FFEA54"/>
<path d="M22.832 13.8805V28.1285H20.0195V17.1227L16.6406 18.1969V15.9801L22.5293 13.8805H22.832Z" fill="#D57A27"/>
</svg>
