<svg width="24" height="24" viewBox="0 0 24 24" fill="none" xmlns="http://www.w3.org/2000/svg">
<g id="Plane 1" clip-path="url(#clip0_40_42)">
<path id="Vector" d="M19.5513 21.4169C19.2495 21.7185 18.8802 21.9439 18.4741 22.0745C18.0679 22.2051 17.6365 22.2371 17.2155 22.1679C16.7946 22.0988 16.3961 21.9304 16.053 21.6767C15.71 21.4231 15.4323 21.0914 15.2429 20.7091L12.7588 15.4815L9.9834 18.2569L10.3836 20.1845C10.4854 20.6718 10.464 21.1768 10.3214 21.6537C10.1788 22.1307 9.91947 22.5645 9.56691 22.916C9.27609 23.2067 8.91943 23.423 8.52719 23.5464C8.13494 23.6699 7.71871 23.6969 7.31381 23.6251C6.90892 23.5533 6.52731 23.3849 6.20139 23.1342C5.87547 22.8835 5.61485 22.5578 5.44165 22.1849L4.28553 19.7121L1.80995 18.5673C1.43723 18.3948 1.11158 18.135 0.860601 17.81C0.609619 17.4849 0.440701 17.1041 0.368161 16.6998C0.313452 16.2511 0.367794 15.7957 0.526577 15.3724C0.68536 14.9491 0.943899 14.5704 1.28026 14.2683C1.61662 13.9662 2.02089 13.7497 2.45875 13.6372C2.89662 13.5246 3.35517 13.5194 3.79551 13.6218L5.73864 14.0164L8.51615 11.2389L3.30265 8.76327C2.91738 8.57399 2.58279 8.29558 2.32663 7.95113C2.07048 7.60668 1.90014 7.20612 1.82975 6.78267C1.77296 6.30531 1.83645 5.82132 2.01442 5.37476C2.1924 4.92819 2.47922 4.53321 2.84878 4.22577C3.21834 3.91833 3.65892 3.70818 4.13042 3.61444C4.60192 3.52071 5.08937 3.54636 5.54843 3.68907L13.8173 5.93767L16.16 3.59503C16.665 3.0772 17.3359 2.75333 18.0554 2.68004C18.775 2.60675 19.4974 2.78871 20.0964 3.1941C20.4522 3.44696 20.7484 3.77439 20.9646 4.15355C21.1807 4.53272 21.3116 4.95447 21.3479 5.3894C21.3843 5.82433 21.3253 6.26195 21.1751 6.67173C21.0249 7.08152 20.7871 7.4536 20.4783 7.76201L18.06 10.1803L20.3135 18.4683C20.4624 18.983 20.4702 19.5283 20.3361 20.047C20.202 20.5657 19.9309 21.0389 19.5513 21.4169ZM8.18735 17.2245L12.3466 13.0653C12.4604 12.9534 12.5993 12.8702 12.7516 12.8226C12.904 12.7749 13.0655 12.7643 13.2228 12.7914C13.3802 12.8186 13.5288 12.8828 13.6564 12.9787C13.7839 13.0747 13.8869 13.1996 13.9566 13.3432L17.0417 19.8366C17.0908 19.9312 17.1615 20.0128 17.2482 20.0749C17.3348 20.1369 17.4349 20.1776 17.5402 20.1937C17.6822 20.193 17.822 20.1588 17.9483 20.0937C18.0745 20.0287 18.1835 19.9347 18.2665 19.8195C18.3494 19.7043 18.404 19.571 18.4256 19.4307C18.4472 19.2904 18.4353 19.1469 18.3909 19.0121L15.9754 10.1435C15.9299 9.97366 15.93 9.79479 15.9757 9.62495C16.0214 9.45512 16.111 9.30034 16.2356 9.17622L19.0641 6.34779C19.1675 6.24448 19.247 6.11975 19.297 5.98238C19.347 5.84502 19.3662 5.69837 19.3534 5.55276C19.3406 5.40714 19.296 5.26611 19.2228 5.13959C19.1496 5.01306 19.0496 4.90412 18.9297 4.82044C18.7166 4.69106 18.4653 4.63919 18.2184 4.67359C17.9714 4.70798 17.7439 4.82654 17.5742 5.00924L14.8214 7.76201C14.6973 7.88661 14.5425 7.97628 14.3727 8.02197C14.2029 8.06765 14.024 8.06774 13.8541 8.02222L5.00395 5.61382C4.86842 5.56419 4.72289 5.54812 4.5798 5.56697C4.4367 5.58582 4.3003 5.63904 4.18224 5.72207C4.06419 5.80511 3.96799 5.91549 3.90188 6.04379C3.83576 6.17208 3.80169 6.31448 3.80258 6.45881C3.81997 6.56666 3.86294 6.66878 3.9279 6.75662C3.99285 6.84446 4.0779 6.91546 4.17593 6.96369L10.6509 10.0445C10.7941 10.1141 10.9188 10.2167 11.0147 10.3438C11.1105 10.471 11.1748 10.619 11.2023 10.7759C11.2298 10.9327 11.2196 11.0938 11.1727 11.246C11.1258 11.3981 11.0434 11.537 10.9323 11.6511L6.77313 15.8103C6.65634 15.9271 6.51241 16.0132 6.35422 16.0608C6.19604 16.1085 6.02851 16.1162 5.86662 16.0832L3.3967 15.5833C2.93779 15.4468 2.21512 15.864 2.33604 16.347C2.35065 16.4355 2.38706 16.5191 2.44199 16.5901C2.49692 16.661 2.56864 16.7172 2.6507 16.7536L5.46357 18.0504C5.67894 18.15 5.85188 18.3229 5.95148 18.5383L7.25538 21.3498C7.29357 21.43 7.35042 21.4999 7.42118 21.5536C7.49194 21.6073 7.57454 21.6433 7.66207 21.6586C7.74959 21.6738 7.8395 21.6678 7.92425 21.6412C8.00899 21.6145 8.08612 21.5679 8.14916 21.5053C8.26666 21.388 8.35307 21.2432 8.4006 21.0841C8.44813 20.9249 8.45528 20.7565 8.4214 20.5939L7.90946 18.136C7.87629 17.9729 7.88433 17.8042 7.93286 17.645C7.98138 17.4859 8.06886 17.3413 8.18735 17.2245Z" fill="#0062BC"/>
</g>
<defs>
<clipPath id="clip0_40_42">
<rect width="24" height="24" fill="white"/>
</clipPath>
</defs>
</svg>
