<svg width="42" height="50" viewBox="0 0 42 50" fill="none" xmlns="http://www.w3.org/2000/svg">
<path d="M32.2225 28.8177C32.0392 28.8233 31.8616 28.8827 31.7117 28.9882C28.5713 31.1868 24.8335 32.369 21 32.3774C17.1679 32.3751 13.4296 31.1986 10.2865 29.0065C10.1459 28.9084 9.98119 28.8508 9.81016 28.8399C9.63913 28.8289 9.46836 28.8649 9.31641 28.9442C9.16447 29.0235 9.03715 29.1429 8.94831 29.2895C8.85947 29.436 8.8125 29.6041 8.8125 29.7755V48.315C8.8125 48.4751 8.85352 48.6326 8.93166 48.7724C9.0098 48.9122 9.12245 49.0296 9.25887 49.1135C9.39529 49.1974 9.55092 49.245 9.71094 49.2517C9.87096 49.2584 10.03 49.224 10.173 49.1518L20.9103 43.7373L31.8343 49.1554C31.9773 49.226 32.1359 49.2591 32.2952 49.2514C32.4545 49.2437 32.6091 49.1955 32.7446 49.1114C32.8801 49.0272 32.9918 48.91 33.0693 48.7706C33.1468 48.6313 33.1875 48.4744 33.1875 48.315V29.7554C33.1875 29.63 33.1624 29.5057 33.1136 29.3901C33.0647 29.2746 32.9932 29.17 32.9032 29.0826C32.8133 28.9952 32.7066 28.9267 32.5897 28.8813C32.4728 28.8358 32.3479 28.814 32.2225 28.8177Z" fill="#A4A4A4"/>
<path d="M20.9991 41.2532C32.3789 41.2532 41.6222 32.0099 41.6222 20.6301C41.6222 9.25025 32.3789 0 20.9991 0C9.61925 0 0.375916 9.25025 0.375916 20.6301C0.375916 32.0099 9.61925 41.2532 20.9991 41.2532Z" fill="#B5B5B5"/>
<path d="M20.9991 37.5023C30.3078 37.5023 37.8782 29.9388 37.8782 20.6301C37.8782 11.3213 30.3078 3.75092 20.9991 3.75092C11.6903 3.75092 4.12683 11.3213 4.12683 20.6301C4.12683 29.9388 11.6903 37.5023 20.9991 37.5023Z" fill="#CDCDCD"/>
<path d="M25.7031 25.9313V28.1285H15.9766V26.2535L20.5762 21.3219C21.0384 20.8076 21.403 20.3551 21.6699 19.9645C21.9368 19.5673 22.1289 19.2125 22.2461 18.9C22.3698 18.581 22.4316 18.2783 22.4316 17.9918C22.4316 17.5621 22.36 17.1943 22.2168 16.8883C22.0736 16.5758 21.862 16.3349 21.582 16.1656C21.3086 15.9964 20.9701 15.9117 20.5664 15.9117C20.1367 15.9117 19.7656 16.0159 19.4531 16.2242C19.1471 16.4326 18.9128 16.7223 18.75 17.0934C18.5938 17.4645 18.5156 17.8844 18.5156 18.3531H15.6934C15.6934 17.5068 15.8952 16.7321 16.2988 16.0289C16.7025 15.3193 17.2721 14.7561 18.0078 14.3395C18.7435 13.9163 19.6159 13.7047 20.625 13.7047C21.6211 13.7047 22.4609 13.8675 23.1445 14.193C23.8346 14.512 24.3555 14.9742 24.707 15.5797C25.0651 16.1787 25.2441 16.8948 25.2441 17.7281C25.2441 18.1969 25.1693 18.6559 25.0195 19.1051C24.8698 19.5478 24.6549 19.9905 24.375 20.4332C24.1016 20.8694 23.7695 21.3121 23.3789 21.7614C22.9883 22.2106 22.5553 22.6761 22.0801 23.1578L19.6094 25.9313H25.7031Z" fill="#837474"/>
</svg>
