<svg width="1920" height="1080" viewBox="0 0 1920 1080" fill="none" xmlns="http://www.w3.org/2000/svg">
<g clip-path="url(#clip0_1_2)">
<rect width="1920" height="1080" fill="#08418C"/>
<path d="M116.172 954.35C-106.893 898.148 53.8746 1240.45 172.665 1328.03C291.456 1415.62 458.76 1390.33 546.35 1271.54C633.94 1152.75 608.647 985.447 489.856 897.857C371.066 810.267 339.236 1010.55 116.172 954.35Z" fill="#0B54B5"/>
<path d="M236.84 946.059C436.754 1060 83.5356 1195.29 -62.884 1176.15C-209.304 1157.01 -312.506 1022.96 -293.392 876.748C-274.279 730.532 -140.088 627.516 6.33151 646.656C152.751 665.796 36.9253 832.118 236.84 946.059Z" fill="#0F77FF"/>
<path d="M1908.95 -63.756C1891.15 75.8853 1676.58 -14.255 1576.83 153.932C1477.08 322.119 1315.22 54.5798 1357.35 -131.004C1399.48 -316.588 1502.28 -369.478 1641.3 -351.754C1780.32 -334.03 1926.75 -203.397 1908.95 -63.756Z" fill="#FFC733"/>
<circle cx="1736.73" cy="161.152" r="56.2068" transform="rotate(0.971407 1736.73 161.152)" fill="#FFC733"/>
</g>
<defs>
<clipPath id="clip0_1_2">
<rect width="1920" height="1080" fill="white"/>
</clipPath>
</defs>
</svg>
