<svg width="24" height="24" viewBox="0 0 24 24" fill="none" xmlns="http://www.w3.org/2000/svg">
<g id="truck" clip-path="url(#clip0_40_44)">
<path id="Vector" d="M1 15H13C13.2652 15 13.5196 14.8946 13.7071 14.7071C13.8946 14.5196 14 14.2652 14 14V5.5C13.9987 4.30693 13.5241 3.16311 12.6805 2.31948C11.8369 1.47585 10.6931 1.00132 9.5 1H4.5C3.30693 1.00132 2.16311 1.47585 1.31948 2.31948C0.475854 3.16311 0.00132344 4.30693 9.26165e-09 5.5V14C9.26165e-09 14.2652 0.105357 14.5196 0.292893 14.7071C0.48043 14.8946 0.734784 15 1 15ZM2 5.5C2 4.83696 2.26339 4.20107 2.73223 3.73223C3.20107 3.26339 3.83696 3 4.5 3H9.5C9.8283 3 10.1534 3.06466 10.4567 3.1903C10.76 3.31594 11.0356 3.50009 11.2678 3.73223C11.4999 3.96438 11.6841 4.23998 11.8097 4.54329C11.9353 4.84661 12 5.1717 12 5.5V13H2V5.5ZM6 6V10C6 10.2652 5.89464 10.5196 5.70711 10.7071C5.51957 10.8946 5.26522 11 5 11C4.73478 11 4.48043 10.8946 4.29289 10.7071C4.10536 10.5196 4 10.2652 4 10V6C4 5.73478 4.10536 5.48043 4.29289 5.29289C4.48043 5.10536 4.73478 5 5 5C5.26522 5 5.51957 5.10536 5.70711 5.29289C5.89464 5.48043 6 5.73478 6 6ZM10 6V10C10 10.2652 9.89464 10.5196 9.70711 10.7071C9.51957 10.8946 9.26522 11 9 11C8.73478 11 8.48043 10.8946 8.29289 10.7071C8.10536 10.5196 8 10.2652 8 10V6C8 5.73478 8.10536 5.48043 8.29289 5.29289C8.48043 5.10536 8.73478 5 9 5C9.26522 5 9.51957 5.10536 9.70711 5.29289C9.89464 5.48043 10 5.73478 10 6ZM23.641 10.76L22.741 8.06C21.988 4.949 16.319 3.4 16 7.5V17H1C0.734784 17 0.48043 17.1054 0.292893 17.2929C0.105357 17.4804 9.26165e-09 17.7348 9.26165e-09 18V19.5C-3.56179e-05 19.9898 0.102715 20.4741 0.301609 20.9216C0.500503 21.3692 0.791112 21.77 1.15464 22.0982C1.51818 22.4264 1.94654 22.6746 2.41204 22.8269C2.87753 22.9791 3.3698 23.032 3.857 22.982C4.6678 22.8947 5.4202 22.5188 5.977 21.923C6.46399 22.4177 7.08648 22.7572 7.76605 22.8987C8.44563 23.0403 9.1519 22.9776 9.7959 22.7185C10.4399 22.4594 10.9928 22.0156 11.3851 21.4428C11.7773 20.8701 11.9912 20.1941 12 19.5V19H16V19.5C16 20.4283 16.3687 21.3185 17.0251 21.9749C17.6815 22.6313 18.5717 23 19.5 23C20.4283 23 21.3185 22.6313 21.9749 21.9749C22.6313 21.3185 23 20.4283 23 19.5V18.731C23.3039 18.5556 23.5563 18.3032 23.7318 17.9994C23.9073 17.6956 23.9998 17.3509 24 17V12.974C24.0003 12.2215 23.8791 11.4739 23.641 10.76ZM18 17V13H22V17H18ZM18.5 7C19.0184 6.99953 19.5237 7.16236 19.9443 7.46536C20.3649 7.76837 20.6793 8.19616 20.843 8.688L21.613 11H18V7.5C18 7.36739 18.0527 7.24021 18.1464 7.14645C18.2402 7.05268 18.3674 7 18.5 7ZM3.658 20.992C3.44883 21.0142 3.23734 20.9921 3.03726 20.9272C2.83718 20.8623 2.65298 20.7561 2.49663 20.6154C2.34027 20.4747 2.21526 20.3026 2.1297 20.1105C2.04414 19.9183 1.99995 19.7103 2 19.5V19H5V19.357C5.01488 19.7465 4.88655 20.1279 4.63927 20.4292C4.39199 20.7304 4.0429 20.9307 3.658 20.992ZM10 19.5C9.99375 19.7192 9.94063 19.9344 9.84421 20.1313C9.74779 20.3282 9.61031 20.5022 9.44102 20.6415C9.27173 20.7808 9.07456 20.8823 8.86278 20.939C8.651 20.9957 8.42953 21.0064 8.21327 20.9704C7.99701 20.9343 7.79098 20.8524 7.60905 20.73C7.42711 20.6077 7.2735 20.4478 7.15854 20.2611C7.04359 20.0744 6.96996 19.8653 6.94261 19.6477C6.91526 19.4302 6.93483 19.2093 7 19H10V19.5ZM19.5 21C19.1022 21 18.7206 20.842 18.4393 20.5607C18.158 20.2794 18 19.8978 18 19.5V19H21V19.5C21 19.8978 20.842 20.2794 20.5607 20.5607C20.2794 20.842 19.8978 21 19.5 21Z" fill="#0062BC"/>
</g>
<defs>
<clipPath id="clip0_40_44">
<rect width="24" height="24" fill="white"/>
</clipPath>
</defs>
</svg>
